<svg width="606" height="606" viewBox="0 0 606 606" fill="none" xmlns="http://www.w3.org/2000/svg">
<rect x="1.5" y="1.5" width="603" height="603" rx="151.5" fill="#0F1E3A" stroke="#00596C" stroke-width="3"/>
<path d="M352.42 413V194.818H426.142C443.188 194.818 457.179 197.73 468.116 203.554C479.054 209.307 487.151 217.226 492.406 227.311C497.662 237.396 500.29 248.866 500.29 261.722C500.29 274.577 497.662 285.976 492.406 295.919C487.151 305.862 479.089 313.675 468.223 319.357C457.357 324.967 443.472 327.773 426.568 327.773H366.909V303.909H425.716C437.364 303.909 446.739 302.205 453.841 298.795C461.014 295.386 466.199 290.557 469.395 284.307C472.662 277.986 474.295 270.457 474.295 261.722C474.295 252.986 472.662 245.351 469.395 238.817C466.128 232.283 460.908 227.24 453.734 223.689C446.561 220.067 437.08 218.256 425.29 218.256H378.841V413H352.42ZM455.119 314.989L508.812 413H478.131L425.29 314.989H455.119Z" fill="#32AAEC"/>
<mask id="path-3-outside-1_8_10" maskUnits="userSpaceOnUse" x="106" y="220" width="163" height="187" fill="black">
<rect fill="white" x="106" y="220" width="163" height="187"/>
<path d="M267.384 323.511L107.298 405.045V373.227L230.097 314.065L229.102 316.054V311.082L230.097 313.071L107.298 253.909V222.091L267.384 303.625V323.511Z"/>
</mask>
<path d="M267.384 323.511L107.298 405.045V373.227L230.097 314.065L229.102 316.054V311.082L230.097 313.071L107.298 253.909V222.091L267.384 303.625V323.511Z" fill="#00596C"/>
<path d="M267.384 323.511L267.837 324.402L268.384 324.124V323.511H267.384ZM107.298 405.045H106.298V406.677L107.752 405.937L107.298 405.045ZM107.298 373.227L106.864 372.326L106.298 372.599V373.227H107.298ZM230.097 314.065L230.991 314.513L232.301 311.894L229.663 313.164L230.097 314.065ZM229.102 316.054H228.102L229.997 316.501L229.102 316.054ZM229.102 311.082L229.997 310.635L228.102 311.082H229.102ZM230.097 313.071L229.663 313.972L232.301 315.243L230.991 312.624L230.097 313.071ZM107.298 253.909H106.298V254.537L106.864 254.81L107.298 253.909ZM107.298 222.091L107.752 221.2L106.298 220.459V222.091H107.298ZM267.384 303.625H268.384V303.012L267.837 302.734L267.384 303.625ZM267.384 323.511L266.93 322.62L106.844 404.154L107.298 405.045L107.752 405.937L267.837 324.402L267.384 323.511ZM107.298 405.045H108.298V373.227H107.298H106.298V405.045H107.298ZM107.298 373.227L107.732 374.128L230.531 314.966L230.097 314.065L229.663 313.164L106.864 372.326L107.298 373.227ZM230.097 314.065L229.202 313.618L228.208 315.607L229.102 316.054L229.997 316.501L230.991 314.513L230.097 314.065ZM229.102 316.054H230.102V311.082H229.102H228.102V316.054H229.102ZM229.102 311.082L228.208 311.53L229.202 313.518L230.097 313.071L230.991 312.624L229.997 310.635L229.102 311.082ZM230.097 313.071L230.531 312.17L107.732 253.008L107.298 253.909L106.864 254.81L229.663 313.972L230.097 313.071ZM107.298 253.909H108.298V222.091H107.298H106.298V253.909H107.298ZM107.298 222.091L106.844 222.982L266.93 304.516L267.384 303.625L267.837 302.734L107.752 221.2L107.298 222.091ZM267.384 303.625H266.384V323.511H267.384H268.384V303.625H267.384Z" fill="#31465B" mask="url(#path-3-outside-1_8_10)"/>
</svg>
